<?xml version="1.0" encoding="utf-8"?>
<!-- Generator: Adobe Illustrator 16.0.0, SVG Export Plug-In . SVG Version: 6.00 Build 0)  -->
<!DOCTYPE svg PUBLIC "-//W3C//DTD SVG 1.1//EN" "http://www.w3.org/Graphics/SVG/1.1/DTD/svg11.dtd">
<svg version="1.1" id="Layer_1" xmlns="http://www.w3.org/2000/svg" xmlns:xlink="http://www.w3.org/1999/xlink" x="0px" y="0px"
	 width="34.666px" height="28.333px" viewBox="0 0 34.666 28.333" enable-background="new 0 0 34.666 28.333" xml:space="preserve">
<g>
	<path id="github-2-icon_2_" fill="#03A9F4" d="M28.199,13.884l0.02-0.202c-1.211-0.117-2.414-0.128-3.582-0.039
		c0.188-0.599,0.287-1.276,0.279-2.047c-0.016-1.635-0.561-2.91-1.418-3.967c0.164-0.998,0.041-1.993-0.27-2.989
		C22.002,4.74,20.9,5.142,19.918,5.838c-1.836-0.372-3.67-0.396-5.505,0c-1.146-0.773-2.271-1.151-3.377-1.198
		c-0.328,1.097-0.379,2.179-0.102,3.241C9.969,8.906,9.6,10.15,9.618,11.529c0.011,0.788,0.132,1.49,0.356,2.111
		c-1.152-0.085-2.336-0.074-3.527,0.041l0.02,0.202c1.213-0.118,2.418-0.128,3.589-0.036c0.044,0.104,0.087,0.208,0.136,0.308
		c-1.269-0.033-2.41,0.076-3.48,0.339l0.049,0.197c1.086-0.267,2.248-0.374,3.547-0.33c0.857,1.525,2.51,2.421,4.917,2.705
		c-0.56,0.454-0.86,0.99-0.937,1.596c0,0-0.254,0-1.275,0c-1.712,0-2.178-2.182-3.951-1.967c1.721,0.853,1.377,3.58,4.129,3.58
		c0.925,0,1.121,0,1.156,0v2.498c0.012,0.404-0.164,0.674-0.447,0.861c0.985,0.1,1.727-0.393,1.727-0.996s0-3.01,0-3.304
		s0.309-0.317,0.309-0.317v3.857c0.012,0.385-0.174,0.602-0.372,0.811c0.868,0.034,1.685-0.139,1.722-0.878c0,0,0-3.506,0-3.69
		c0-0.187,0.305-0.19,0.305,0c0,0.189,0,3.518,0,3.518c0.009,0.623,0.547,1.129,1.688,1.051c-0.305-0.246-0.398-0.494-0.398-0.854
		s0-3.814,0-3.814s0.314-0.016,0.314,0.317c0,0.334,0,2.66,0,3.218c0,0.716,0.859,1.011,1.84,0.983
		c-0.32-0.241-0.539-0.528-0.539-0.911v-3.869c-0.033-0.569-0.264-1.105-0.719-1.604c2.201-0.338,3.787-1.216,4.576-2.79
		c1.303-0.045,2.469,0.062,3.557,0.33l0.047-0.197c-1.076-0.264-2.229-0.374-3.508-0.338c0.043-0.101,0.088-0.201,0.125-0.307
		C25.754,13.756,26.973,13.766,28.199,13.884z M9.83,17.021c-0.055,0-0.099-0.031-0.099-0.07c0-0.038,0.044-0.069,0.099-0.069
		c0.054,0,0.098,0.031,0.098,0.069C9.928,16.99,9.884,17.021,9.83,17.021z M10.138,17.23c-0.06,0-0.108-0.033-0.108-0.076
		s0.049-0.077,0.108-0.077c0.061,0,0.109,0.034,0.109,0.077S10.198,17.23,10.138,17.23z M10.451,17.504
		c-0.072,0-0.129-0.04-0.129-0.09s0.057-0.09,0.129-0.09c0.07,0,0.127,0.04,0.127,0.09S10.521,17.504,10.451,17.504z M10.754,17.832
		c-0.082,0-0.148-0.047-0.148-0.105s0.066-0.105,0.148-0.105c0.083,0,0.149,0.047,0.149,0.105S10.837,17.832,10.754,17.832z
		 M11.089,18.203c-0.092,0-0.165-0.053-0.165-0.117c0-0.065,0.073-0.118,0.165-0.118s0.166,0.053,0.166,0.118
		C11.255,18.15,11.181,18.203,11.089,18.203z M11.477,18.579c-0.102,0-0.185-0.058-0.185-0.13s0.083-0.131,0.185-0.131
		s0.184,0.059,0.184,0.131S11.578,18.579,11.477,18.579z M12,18.938c-0.113,0-0.204-0.065-0.204-0.145
		c0-0.081,0.091-0.146,0.204-0.146s0.205,0.065,0.205,0.146C12.205,18.872,12.113,18.938,12,18.938z M12.649,19.129
		c-0.112,0-0.204-0.064-0.204-0.145c0-0.081,0.092-0.146,0.204-0.146c0.114,0,0.205,0.064,0.205,0.146
		C12.854,19.064,12.764,19.129,12.649,19.129z M13.334,19.151c-0.112,0-0.204-0.065-0.204-0.146s0.092-0.145,0.204-0.145
		c0.113,0,0.205,0.064,0.205,0.145S13.447,19.151,13.334,19.151z M14.011,19.164c-0.113,0-0.205-0.064-0.205-0.145
		c0-0.081,0.092-0.146,0.205-0.146s0.205,0.065,0.205,0.146C14.216,19.1,14.124,19.164,14.011,19.164z"/>
</g>
</svg>
