<?xml version="1.0" encoding="utf-8"?>
<!-- Generator: Adobe Illustrator 16.0.0, SVG Export Plug-In . SVG Version: 6.00 Build 0)  -->
<!DOCTYPE svg PUBLIC "-//W3C//DTD SVG 1.1//EN" "http://www.w3.org/Graphics/SVG/1.1/DTD/svg11.dtd">
<svg version="1.1" id="Layer_1" xmlns="http://www.w3.org/2000/svg" xmlns:xlink="http://www.w3.org/1999/xlink" x="0px" y="0px"
	 width="27.667px" height="26px" viewBox="0 0 27.667 26" enable-background="new 0 0 27.667 26" xml:space="preserve">
<g>
	<g id="google-plus-icon_2_">
		<path fill="#03A9F4" d="M24.718,6.942h-2.887v2.886h-1.443V6.942h-2.886V5.5h2.886V2.613h1.443V5.5h2.887V6.942z M16.558,18.879
			c0,2.163-1.975,4.797-6.944,4.797c-3.635,0-6.666-1.567-6.666-4.204c0-2.035,1.288-4.678,7.31-4.678
			c-0.895-0.728-1.113-1.747-0.567-2.851c-3.525,0-5.331-2.073-5.331-4.704c0-2.574,1.916-4.916,5.821-4.916
			c0.985,0,6.255,0,6.255,0l-1.396,1.468h-1.643c1.158,0.663,1.774,2.03,1.774,3.538c0,1.382-0.761,2.503-1.849,3.343
			c-1.929,1.491-1.436,2.324,0.586,3.798C15.9,15.962,16.558,17.115,16.558,18.879z M12.656,7.423
			c-0.289-2.215-1.732-4.031-3.418-4.082C7.552,3.292,6.42,4.986,6.712,7.201c0.291,2.215,1.894,3.761,3.58,3.812
			C11.977,11.062,12.948,9.637,12.656,7.423z M14.394,19.101c0-1.821-1.66-3.557-4.447-3.557c-2.514-0.028-4.642,1.587-4.642,3.459
			c0,1.91,1.813,3.5,4.327,3.5C12.843,22.503,14.394,21.011,14.394,19.101z"/>
	</g>
</g>
</svg>
