<?xml version="1.0" encoding="utf-8"?>
<!-- Generator: Adobe Illustrator 16.0.0, SVG Export Plug-In . SVG Version: 6.00 Build 0)  -->
<!DOCTYPE svg PUBLIC "-//W3C//DTD SVG 1.1//EN" "http://www.w3.org/Graphics/SVG/1.1/DTD/svg11.dtd">
<svg version="1.1" id="Layer_1" xmlns="http://www.w3.org/2000/svg" xmlns:xlink="http://www.w3.org/1999/xlink" x="0px" y="0px"
	 width="258.182px" height="456.363px" viewBox="0 0 258.182 456.363" enable-background="new 0 0 258.182 456.363"
	 xml:space="preserve">
<g>
	<g>
		
			<image overflow="visible" width="220" height="430" xlink:href="660490CCA2B184DD.png"  transform="matrix(0.9091 0 0 0.907 29.0908 33.1816)">
		</image>
		<path fill="#FAFAFA" d="M43.019,381.806c-1.501,0-2.714-1.283-2.714-2.866V69.308c0-1.583,1.213-2.866,2.714-2.866h172.776
			c1.502,0,2.715,1.283,2.715,2.866v309.631c0,1.583-1.213,2.866-2.715,2.866H43.019z"/>
	</g>
	<path fill="#FFEB36" d="M42.703,328.717c-1.5,0-2.713-0.817-2.713-1.828V129.473c0-1.009,1.214-1.828,2.713-1.828H215.48
		c1.5,0,2.713,0.819,2.713,1.828v197.416c0,1.011-1.213,1.828-2.713,1.828H42.703z"/>
	<g>
		<path fill="#FAFAFA" d="M77.057,290.548c-3.025,0-5.476-2.449-5.476-5.467V181.257c0-3.02,2.451-5.467,5.476-5.467h104.07
			c3.023,0,5.477,2.447,5.477,5.467v103.824c0,3.018-2.453,5.467-5.477,5.467H77.057z"/>
		<text transform="matrix(1.0023 0 0 1 113.2056 244.6729)" fill="#424242" font-family="'Roboto-Thin'" font-size="30.0552">25</text>
		<text transform="matrix(1.0023 0 0 1 86.9697 203.3936)" fill="#424242" font-family="'Roboto-Thin'" font-size="13.115">Outubro - 2014</text>
		<text transform="matrix(1.0023 0 0 1 105.937 276.4971)" fill="#424242" font-family="'Roboto-Thin'" font-size="11.4756">9h às 13h</text>
		<g>
			<path fill="#8BC34A" d="M93.404,180.619c0,1.593-1.525,2.886-3.409,2.886l0,0c-1.883,0-3.41-1.293-3.41-2.886v-11.921
				c0-1.592,1.526-2.883,3.41-2.883l0,0c1.883,0,3.409,1.291,3.409,2.883V180.619z"/>
			<path fill="#8BC34A" d="M119.47,180.619c0,1.593-1.528,2.886-3.41,2.886l0,0c-1.884,0-3.41-1.293-3.41-2.886v-11.921
				c0-1.592,1.526-2.883,3.41-2.883l0,0c1.882,0,3.41,1.291,3.41,2.883V180.619z"/>
			<path fill="#8BC34A" d="M145.533,180.619c0,1.593-1.526,2.886-3.41,2.886l0,0c-1.883,0-3.41-1.293-3.41-2.886v-11.921
				c0-1.592,1.527-2.883,3.41-2.883l0,0c1.884,0,3.41,1.291,3.41,2.883V180.619z"/>
			<path fill="#8BC34A" d="M171.598,180.619c0,1.593-1.527,2.886-3.411,2.886l0,0c-1.882,0-3.409-1.293-3.409-2.886v-11.921
				c0-1.592,1.527-2.883,3.409-2.883l0,0c1.884,0,3.411,1.291,3.411,2.883V180.619z"/>
		</g>
	</g>
</g>
</svg>
